<svg xmlns="http://www.w3.org/2000/svg" xmlns:xlink="http://www.w3.org/1999/xlink" xmlns:lucid="lucid" width="1302" height="640.4"><g transform="translate(-299 -159)" lucid:page-tab-id="0_0"><path d="M760 180h160v120H760z" stroke="#f2f3f5" stroke-width="2" fill="url(#a)"/><use xlink:href="#b" transform="matrix(1,0,0,1,765,185) translate(-0.7750000000000057 58.6)"/><path d="M320 400h160v120H320z" stroke="#f2f3f5" stroke-width="2" fill="url(#c)"/><use xlink:href="#d" transform="matrix(1,0,0,1,332,412) translate(13.674999999999997 41.4)"/><use xlink:href="#e" transform="matrix(1,0,0,1,332,412) translate(26.549999999999997 63)"/><path d="M840 302v48H400v30.5" stroke="#f2f3f5" stroke-width="2" fill="none"/><path d="M841 302.03h-2V301h2z" stroke="#f2f3f5" stroke-width=".05" fill="#f2f3f5"/><path d="M400 395.76l-4.63-14.26h9.26z" stroke="#f2f3f5" stroke-width="2" fill="#f2f3f5"/><path d="M540 400h160v120H540z" stroke="#f2f3f5" stroke-width="2" fill="url(#f)"/><use xlink:href="#g" transform="matrix(1,0,0,1,552,412) translate(13.099999999999994 41.4)"/><use xlink:href="#h" transform="matrix(1,0,0,1,552,412) translate(64 41.4)"/><use xlink:href="#i" transform="matrix(1,0,0,1,552,412) translate(22.549999999999997 63)"/><path d="M840 302v48H620v30.5" stroke="#f2f3f5" stroke-width="2" fill="none"/><path d="M841 302.03h-2V301h2z" stroke="#f2f3f5" stroke-width=".05" fill="#f2f3f5"/><path d="M620 395.76l-4.63-14.26h9.26z" stroke="#f2f3f5" stroke-width="2" fill="#f2f3f5"/><path d="M980 400h160v120H980z" stroke="#f2f3f5" stroke-width="2" fill="url(#j)"/><use xlink:href="#k" transform="matrix(1,0,0,1,992,412) translate(12.599999999999994 41.4)"/><use xlink:href="#l" transform="matrix(1,0,0,1,992,412) translate(22.574999999999996 63)"/><path d="M1420 399h160v120h-160z" stroke="#f2f3f5" stroke-width="2" fill="url(#m)"/><use xlink:href="#n" transform="matrix(1,0,0,1,1432,411) translate(31.599999999999994 41.4)"/><use xlink:href="#o" transform="matrix(1,0,0,1,1432,411) translate(12.574999999999996 63)"/><path d="M400 522v58.5" stroke="#f2f3f5" stroke-width="2" fill="none"/><path d="M401 522.03h-2V521h2z" stroke="#f2f3f5" stroke-width=".05" fill="#f2f3f5"/><path d="M400 595.76l-4.63-14.26h9.26z" stroke="#f2f3f5" stroke-width="2" fill="#f2f3f5"/><path d="M320 600h160v120H320z" stroke="#f2f3f5" stroke-width="2" fill="url(#p)"/><use xlink:href="#q" transform="matrix(1,0,0,1,332,612) translate(13.874999999999993 41.4)"/><use xlink:href="#r" transform="matrix(1,0,0,1,332,612) translate(35.32499999999999 41.4)"/><use xlink:href="#s" transform="matrix(1,0,0,1,332,612) translate(26.874999999999993 63)"/><use xlink:href="#t" transform="matrix(1,0,0,1,332,612) translate(48.32499999999999 63)"/><path d="M760 400h160v120H760z" stroke="#f2f3f5" stroke-width="2" fill="url(#u)"/><use xlink:href="#v" transform="matrix(1,0,0,1,772,412) translate(37.599999999999994 41.4)"/><use xlink:href="#w" transform="matrix(1,0,0,1,772,412) translate(23.049999999999997 63)"/><path d="M840 302v78.5" stroke="#f2f3f5" stroke-width="2" fill="none"/><path d="M841 302.03h-2V301h2z" stroke="#f2f3f5" stroke-width=".05" fill="#f2f3f5"/><path d="M840 395.76l-4.63-14.26h9.26z" stroke="#f2f3f5" stroke-width="2" fill="#f2f3f5"/><path d="M840 302v48h220v30.5" stroke="#f2f3f5" stroke-width="2" fill="none"/><path d="M841 302.03h-2V301h2z" stroke="#f2f3f5" stroke-width=".05" fill="#f2f3f5"/><path d="M1060 395.76l-4.63-14.26h9.27z" stroke="#f2f3f5" stroke-width="2" fill="#f2f3f5"/><path d="M840 302v47.5h660v30" stroke="#f2f3f5" stroke-width="2" fill="none"/><path d="M841 302.03h-2V301h2z" stroke="#f2f3f5" stroke-width=".05" fill="#f2f3f5"/><path d="M1500 394.76l-4.63-14.26h9.27z" stroke="#f2f3f5" stroke-width="2" fill="#f2f3f5"/><path d="M620 522v40.1" stroke="#f2f3f5" stroke-width="2" fill="none"/><path d="M621 522.03h-2V521h2z" stroke="#f2f3f5" stroke-width=".05" fill="#f2f3f5"/><path d="M620 577.36l-4.63-14.26h9.26z" stroke="#f2f3f5" stroke-width="2" fill="#f2f3f5"/><path d="M520 581.6h200v196.8H520z" stroke="#f2f3f5" stroke-width="2" fill="url(#x)"/><use xlink:href="#q" transform="matrix(1,0,0,1,532,593.6) translate(35.849999999999994 14.4)"/><use xlink:href="#y" transform="matrix(1,0,0,1,532,593.6) translate(57.3 14.4)"/><use xlink:href="#z" transform="matrix(1,0,0,1,532,593.6) translate(82.3 14.4)"/><use xlink:href="#s" transform="matrix(1,0,0,1,532,593.6) translate(27.875 36)"/><use xlink:href="#A" transform="matrix(1,0,0,1,532,593.6) translate(49.325 36)"/><use xlink:href="#B" transform="matrix(1,0,0,1,532,593.6) translate(112.275 36)"/><use xlink:href="#s" transform="matrix(1,0,0,1,532,593.6) translate(1.375 57.6)"/><use xlink:href="#C" transform="matrix(1,0,0,1,532,593.6) translate(22.825 57.6)"/><use xlink:href="#D" transform="matrix(1,0,0,1,532,593.6) translate(86.72500000000001 57.6)"/><use xlink:href="#s" transform="matrix(1,0,0,1,532,593.6) translate(8.349999999999994 79.20000000000002)"/><use xlink:href="#E" transform="matrix(1,0,0,1,532,593.6) translate(29.799999999999994 79.20000000000002)"/><use xlink:href="#F" transform="matrix(1,0,0,1,532,593.6) translate(81.7 79.20000000000002)"/><use xlink:href="#G" transform="matrix(1,0,0,1,532,593.6) translate(106.7 79.20000000000002)"/><use xlink:href="#H" transform="matrix(1,0,0,1,532,593.6) translate(15.375 100.80000000000001)"/><use xlink:href="#I" transform="matrix(1,0,0,1,532,593.6) translate(90.775 100.80000000000001)"/><use xlink:href="#r" transform="matrix(1,0,0,1,532,593.6) translate(44.599999999999994 122.4)"/><use xlink:href="#s" transform="matrix(1,0,0,1,532,593.6) translate(12.875 144)"/><use xlink:href="#J" transform="matrix(1,0,0,1,532,593.6) translate(34.325 144)"/><use xlink:href="#I" transform="matrix(1,0,0,1,532,593.6) translate(93.275 144)"/><use xlink:href="#K" transform="matrix(1,0,0,1,532,593.6) translate(71.525 165.6)"/><path d="M840 522v41.7" stroke="#f2f3f5" stroke-width="2" fill="none"/><path d="M841 522.03h-2V521h2z" stroke="#f2f3f5" stroke-width=".05" fill="#f2f3f5"/><path d="M840 578.96l-4.63-14.26h9.26z" stroke="#f2f3f5" stroke-width="2" fill="#f2f3f5"/><path d="M760 583.2h160v153.6H760z" stroke="#f2f3f5" stroke-width="2" fill="url(#L)"/><g><use xlink:href="#q" transform="matrix(1,0,0,1,772,595.2) translate(20.824999999999996 18.4625)"/><use xlink:href="#M" transform="matrix(1,0,0,1,772,595.2) translate(42.27499999999999 18.4625)"/><use xlink:href="#N" transform="matrix(1,0,0,1,772,595.2) translate(78.225 18.4625)"/><use xlink:href="#s" transform="matrix(1,0,0,1,772,595.2) translate(18.5 40.0625)"/><use xlink:href="#O" transform="matrix(1,0,0,1,772,595.2) translate(39.95 40.0625)"/><use xlink:href="#P" transform="matrix(1,0,0,1,772,595.2) translate(108.5 40.0625)"/><use xlink:href="#Q" transform="matrix(1,0,0,1,772,595.2) translate(36.074999999999996 61.6625)"/><use xlink:href="#s" transform="matrix(1,0,0,1,772,595.2) translate(0.5499999999999972 83.26250000000002)"/><use xlink:href="#R" transform="matrix(1,0,0,1,772,595.2) translate(21.999999999999996 83.26250000000002)"/><use xlink:href="#S" transform="matrix(1,0,0,1,772,595.2) translate(62.599999999999994 83.26250000000002)"/><use xlink:href="#T" transform="matrix(1,0,0,1,772,595.2) translate(119.5 83.26250000000002)"/><use xlink:href="#U" transform="matrix(1,0,0,1,772,595.2) translate(52.55 104.86250000000001)"/><use xlink:href="#s" transform="matrix(1,0,0,1,772,595.2) translate(6.349999999999994 126.4625)"/><use xlink:href="#V" transform="matrix(1,0,0,1,772,595.2) translate(27.799999999999994 126.4625)"/><use xlink:href="#W" transform="matrix(1,0,0,1,772,595.2) translate(61.8 126.4625)"/></g><path d="M1060 522v58.5" stroke="#f2f3f5" stroke-width="2" fill="none"/><path d="M1061 522.03h-2V521h2z" stroke="#f2f3f5" stroke-width=".05" fill="#f2f3f5"/><path d="M1060 595.76l-4.63-14.26h9.27z" stroke="#f2f3f5" stroke-width="2" fill="#f2f3f5"/><path d="M980 600h160v120H980z" stroke="#f2f3f5" stroke-width="2" fill="url(#X)"/><g><use xlink:href="#q" transform="matrix(1,0,0,1,992,612) translate(5.324999999999996 41.4)"/><use xlink:href="#Y" transform="matrix(1,0,0,1,992,612) translate(26.774999999999995 41.4)"/><use xlink:href="#s" transform="matrix(1,0,0,1,992,612) translate(9 63)"/><use xlink:href="#Z" transform="matrix(1,0,0,1,992,612) translate(30.45 63)"/><use xlink:href="#aa" transform="matrix(1,0,0,1,992,612) translate(90.4 63)"/></g><path d="M1500 521v58.5" stroke="#f2f3f5" stroke-width="2" fill="none"/><path d="M1501 521.03h-2V520h2z" stroke="#f2f3f5" stroke-width=".05" fill="#f2f3f5"/><path d="M1500 594.76l-4.63-14.26h9.27z" stroke="#f2f3f5" stroke-width="2" fill="#f2f3f5"/><path d="M1420 599h160v120h-160z" stroke="#f2f3f5" stroke-width="2" fill="url(#ab)"/><g><use xlink:href="#q" transform="matrix(1,0,0,1,1432,611) translate(23.324999999999996 20.4)"/><use xlink:href="#ac" transform="matrix(1,0,0,1,1432,611) translate(44.77499999999999 20.4)"/><use xlink:href="#ad" transform="matrix(1,0,0,1,1432,611) translate(92.67500000000001 20.4)"/><use xlink:href="#ae" transform="matrix(1,0,0,1,1432,611) translate(34.574999999999996 42)"/><use xlink:href="#s" transform="matrix(1,0,0,1,1432,611) translate(22.299999999999997 63.6)"/><use xlink:href="#af" transform="matrix(1,0,0,1,1432,611) translate(43.75 63.6)"/><use xlink:href="#ad" transform="matrix(1,0,0,1,1432,611) translate(93.7 63.6)"/><use xlink:href="#ag" transform="matrix(1,0,0,1,1432,611) translate(20.549999999999997 85.20000000000002)"/></g><path d="M1200 400h160v120h-160z" stroke="#f2f3f5" stroke-width="2" fill="url(#ah)"/><g><use xlink:href="#ai" transform="matrix(1,0,0,1,1212,412) translate(11.124999999999993 41.4)"/><use xlink:href="#aj" transform="matrix(1,0,0,1,1212,412) translate(17.574999999999996 63)"/></g><path d="M840 302v48h440v30.5" stroke="#f2f3f5" stroke-width="2" fill="none"/><path d="M841 302.03h-2V301h2z" stroke="#f2f3f5" stroke-width=".05" fill="#f2f3f5"/><path d="M1280 395.76l-4.63-14.26h9.27z" stroke="#f2f3f5" stroke-width="2" fill="#f2f3f5"/><path d="M1280 522v58.5" stroke="#f2f3f5" stroke-width="2" fill="none"/><path d="M1281 522.03h-2V521h2z" stroke="#f2f3f5" stroke-width=".05" fill="#f2f3f5"/><path d="M1280 595.76l-4.63-14.26h9.27z" stroke="#f2f3f5" stroke-width="2" fill="#f2f3f5"/><path d="M1200 600h160v120h-160z" stroke="#f2f3f5" stroke-width="2" fill="url(#ak)"/><g><use xlink:href="#q" transform="matrix(1,0,0,1,1212,612) translate(34.8 41.4)"/><use xlink:href="#al" transform="matrix(1,0,0,1,1212,612) translate(56.25 41.4)"/><use xlink:href="#am" transform="matrix(1,0,0,1,1212,612) translate(26.549999999999997 63)"/></g><defs><linearGradient gradientUnits="userSpaceOnUse" id="a" x1="760" y1="180" x2="760" y2="300"><stop offset="0%" stop-color="#1071e5"/><stop offset="50.37%" stop-color="#6db1ff"/><stop offset="100%" stop-opacity="0"/></linearGradient><path fill="#fff" d="M67-125c0 53 21 87 73 88 37 1 54-22 65-47l45 17C233-25 199 4 140 4 58 4 20-42 15-125 8-235 124-281 211-232c18 10 29 29 36 50l-46 12c-8-25-30-41-62-41-52 0-71 34-72 86" id="an"/><path fill="#fff" d="M110-194c64 0 96 36 96 99 0 64-35 99-97 99-61 0-95-36-95-99 0-62 34-99 96-99zm-1 164c35 0 45-28 45-65 0-40-10-65-43-65-34 0-45 26-45 65 0 36 10 65 43 65" id="ao"/><path fill="#fff" d="M135-194c53 0 70 44 70 98 0 56-19 98-73 100-31 1-45-17-59-34 3 33 2 69 2 105H25l-1-265h48c2 10 0 23 3 31 11-24 29-35 60-35zM114-30c33 0 39-31 40-66 0-38-9-64-40-64-56 0-55 130 0 130" id="ap"/><path fill="#fff" d="M185-48c-13 30-37 53-82 52C43 2 14-33 14-96s30-98 90-98c62 0 83 45 84 108H66c0 31 8 55 39 56 18 0 30-7 34-22zm-45-69c5-46-57-63-70-21-2 6-4 13-4 21h74" id="aq"/><path fill="#fff" d="M135-194c87-1 58 113 63 194h-50c-7-57 23-157-34-157-59 0-34 97-39 157H25l-1-190h47c2 12-1 28 3 38 12-26 28-41 61-42" id="ar"/><path fill="#fff" d="M114-157C55-157 80-60 75 0H25v-261h50l-1 109c12-26 28-41 61-42 86-1 58 113 63 194h-50c-7-57 23-157-34-157" id="as"/><path fill="#fff" d="M133-34C117-15 103 5 69 4 32 3 11-16 11-54c-1-60 55-63 116-61 1-26-3-47-28-47-18 1-26 9-28 27l-52-2c7-38 36-58 82-57s74 22 75 68l1 82c-1 14 12 18 25 15v27c-30 8-71 5-69-32zm-48 3c29 0 43-24 42-57-32 0-66-3-65 30 0 17 8 27 23 27" id="at"/><path fill="#fff" d="M195-6C206 82 75 100 31 46c-4-6-6-13-8-21l49-6c3 16 16 24 34 25 40 0 42-37 40-79-11 22-30 35-61 35-53 0-70-43-70-97 0-56 18-96 73-97 30 0 46 14 59 34l2-30h47zm-90-29c32 0 41-27 41-63 0-35-9-62-40-62-32 0-39 29-40 63 0 36 9 62 39 62" id="au"/><path fill="#fff" d="M85 4C-2 5 27-109 22-190h50c7 57-23 150 33 157 60-5 35-97 40-157h50l1 190h-47c-2-12 1-28-3-38-12 25-28 42-61 42" id="av"/><path fill="#fff" d="M24 0v-54h51V0H24" id="aw"/><path fill="#fff" d="M115-3C79 11 28 4 28-45v-112H4v-33h27l15-45h31v45h36v33H77v99c-1 23 16 31 38 25v30" id="ax"/><path fill="#fff" d="M220-157c-53 9-28 100-34 157h-49v-107c1-27-5-49-29-50C55-147 81-57 75 0H25l-1-190h47c2 12-1 28 3 38 10-53 101-56 108 0 13-22 24-43 59-42 82 1 51 116 57 194h-49v-107c-1-25-5-48-29-50" id="ay"/><path fill="#fff" d="M25 0v-261h50V0H25" id="az"/><g id="b"><use transform="matrix(0.05,0,0,0.05,0,0)" xlink:href="#an"/><use transform="matrix(0.05,0,0,0.05,12.950000000000001,0)" xlink:href="#ao"/><use transform="matrix(0.05,0,0,0.05,23.900000000000002,0)" xlink:href="#ap"/><use transform="matrix(0.05,0,0,0.05,34.85,0)" xlink:href="#aq"/><use transform="matrix(0.05,0,0,0.05,44.85,0)" xlink:href="#ar"/><use transform="matrix(0.05,0,0,0.05,55.800000000000004,0)" xlink:href="#as"/><use transform="matrix(0.05,0,0,0.05,66.75,0)" xlink:href="#at"/><use transform="matrix(0.05,0,0,0.05,76.75,0)" xlink:href="#au"/><use transform="matrix(0.05,0,0,0.05,87.7,0)" xlink:href="#av"/><use transform="matrix(0.05,0,0,0.05,98.65,0)" xlink:href="#aq"/><use transform="matrix(0.05,0,0,0.05,108.65,0)" xlink:href="#aw"/><use transform="matrix(0.05,0,0,0.05,113.65,0)" xlink:href="#as"/><use transform="matrix(0.05,0,0,0.05,124.60000000000001,0)" xlink:href="#ax"/><use transform="matrix(0.05,0,0,0.05,130.55,0)" xlink:href="#ay"/><use transform="matrix(0.05,0,0,0.05,146.55,0)" xlink:href="#az"/></g><linearGradient gradientUnits="userSpaceOnUse" id="c" x1="320" y1="400" x2="320" y2="520"><stop offset="0%" stop-color="#1071e5"/><stop offset="50.37%" stop-color="#6db1ff"/><stop offset="100%" stop-opacity="0"/></linearGradient><g id="d"><use transform="matrix(0.05,0,0,0.05,0,0)" xlink:href="#an"/><use transform="matrix(0.05,0,0,0.05,12.950000000000001,0)" xlink:href="#ao"/><use transform="matrix(0.05,0,0,0.05,23.900000000000002,0)" xlink:href="#ap"/><use transform="matrix(0.05,0,0,0.05,34.85,0)" xlink:href="#aq"/><use transform="matrix(0.05,0,0,0.05,44.85,0)" xlink:href="#ar"/><use transform="matrix(0.05,0,0,0.05,55.800000000000004,0)" xlink:href="#as"/><use transform="matrix(0.05,0,0,0.05,66.75,0)" xlink:href="#at"/><use transform="matrix(0.05,0,0,0.05,76.75,0)" xlink:href="#au"/><use transform="matrix(0.05,0,0,0.05,87.7,0)" xlink:href="#av"/><use transform="matrix(0.05,0,0,0.05,98.65,0)" xlink:href="#aq"/></g><path fill="#fff" d="M33 0v-248h34V0H33" id="aA"/><path fill="#fff" d="M117-194c89-4 53 116 60 194h-32v-121c0-31-8-49-39-48C34-167 62-67 57 0H25l-1-190h30c1 10-1 24 2 32 11-22 29-35 61-36" id="aB"/><path fill="#fff" d="M85-194c31 0 48 13 60 33l-1-100h32l1 261h-30c-2-10 0-23-3-31C134-8 116 4 85 4 32 4 16-35 15-94c0-66 23-100 70-100zm9 24c-40 0-46 34-46 75 0 40 6 74 45 74 42 0 51-32 51-76 0-42-9-74-50-73" id="aC"/><path fill="#fff" d="M100-194c63 0 86 42 84 106H49c0 40 14 67 53 68 26 1 43-12 49-29l28 8c-11 28-37 45-77 45C44 4 14-33 15-96c1-61 26-98 85-98zm52 81c6-60-76-77-97-28-3 7-6 17-6 28h103" id="aD"/><path fill="#fff" d="M141 0L90-78 38 0H4l68-98-65-92h35l48 74 47-74h35l-64 92 68 98h-35" id="aE"/><path fill="#fff" d="M33 0v-38h34V0H33" id="aF"/><path fill="#fff" d="M106-169C34-169 62-67 57 0H25v-261h32l-1 103c12-21 28-36 61-36 89 0 53 116 60 194h-32v-121c2-32-8-49-39-48" id="aG"/><path fill="#fff" d="M59-47c-2 24 18 29 38 22v24C64 9 27 4 27-40v-127H5v-23h24l9-43h21v43h35v23H59v120" id="aH"/><path fill="#fff" d="M210-169c-67 3-38 105-44 169h-31v-121c0-29-5-50-35-48C34-165 62-65 56 0H25l-1-190h30c1 10-1 24 2 32 10-44 99-50 107 0 11-21 27-35 58-36 85-2 47 119 55 194h-31v-121c0-29-5-49-35-48" id="aI"/><path fill="#fff" d="M24 0v-261h32V0H24" id="aJ"/><g id="e"><use transform="matrix(0.05,0,0,0.05,0,0)" xlink:href="#aA"/><use transform="matrix(0.05,0,0,0.05,5,0)" xlink:href="#aB"/><use transform="matrix(0.05,0,0,0.05,15,0)" xlink:href="#aC"/><use transform="matrix(0.05,0,0,0.05,25,0)" xlink:href="#aD"/><use transform="matrix(0.05,0,0,0.05,35,0)" xlink:href="#aE"/><use transform="matrix(0.05,0,0,0.05,44,0)" xlink:href="#aF"/><use transform="matrix(0.05,0,0,0.05,49,0)" xlink:href="#aG"/><use transform="matrix(0.05,0,0,0.05,59,0)" xlink:href="#aH"/><use transform="matrix(0.05,0,0,0.05,64,0)" xlink:href="#aI"/><use transform="matrix(0.05,0,0,0.05,78.95,0)" xlink:href="#aJ"/></g><linearGradient gradientUnits="userSpaceOnUse" id="f" x1="540" y1="400" x2="540" y2="520"><stop offset="0%" stop-color="#1071e5"/><stop offset="50.37%" stop-color="#6db1ff"/><stop offset="100%" stop-opacity="0"/></linearGradient><path fill="#fff" d="M109 61C26 68-9-28 56-69c17-10 36-20 38-46h47c-2 56-65 53-71 103-2 21 17 33 39 33 26 0 39-15 44-37l50 2c-8 47-39 70-94 75zm33-251v47H91v-47h51" id="aK"/><path fill="#fff" d="M140-251c80 0 125 45 125 126 0 70-33 111-92 124 6 28 34 38 68 31l-1 36C177 83 129 55 120 2 51-6 15-50 15-125c0-81 44-126 125-126zm-1 214c52 0 73-35 73-88 0-50-21-86-72-86-52 0-73 35-73 86s22 88 72 88" id="aL"/><path fill="#fff" d="M185-48c-13 30-37 53-82 52C43 2 14-33 14-96s30-98 90-98c62 0 83 45 84 108H66c0 31 8 55 39 56 18 0 30-7 34-22zm-45-69c5-46-57-63-70-21-2 6-4 13-4 21h74zm-67-91v-5l45-51h45v8l-60 48H73" id="aM"/><g id="g"><use transform="matrix(0.05,0,0,0.05,0,0)" xlink:href="#aK"/><use transform="matrix(0.05,0,0,0.05,10.950000000000001,0)" xlink:href="#aL"/><use transform="matrix(0.05,0,0,0.05,24.950000000000003,0)" xlink:href="#av"/><use transform="matrix(0.05,0,0,0.05,35.900000000000006,0)" xlink:href="#aM"/></g><path fill="#fff" d="M190-63c-7 42-38 67-86 67-59 0-84-38-90-98-12-110 154-137 174-36l-49 2c-2-19-15-32-35-32-30 0-35 28-38 64-6 74 65 87 74 30" id="aN"/><path fill="#fff" d="M135-150c-39-12-60 13-60 57V0H25l-1-190h47c2 13-1 29 3 40 6-28 27-53 61-41v41" id="aO"/><path fill="#fff" d="M110-251c83-7 118 89 53 130-17 10-36 21-38 46H78c2-56 65-53 71-103 2-21-15-35-38-34-25 1-41 14-44 38l-50-2c6-48 39-70 93-75zM77 0v-47h51V0H77" id="aP"/><g id="h"><use transform="matrix(0.05,0,0,0.05,0,0)" xlink:href="#as"/><use transform="matrix(0.05,0,0,0.05,10.950000000000001,0)" xlink:href="#at"/><use transform="matrix(0.05,0,0,0.05,20.950000000000003,0)" xlink:href="#aN"/><use transform="matrix(0.05,0,0,0.05,30.950000000000003,0)" xlink:href="#aq"/><use transform="matrix(0.05,0,0,0.05,40.95,0)" xlink:href="#aO"/><use transform="matrix(0.05,0,0,0.05,47.95,0)" xlink:href="#aP"/></g><path fill="#fff" d="M30-248c87 1 191-15 191 75 0 78-77 80-158 76V0H30v-248zm33 125c57 0 124 11 124-50 0-59-68-47-124-48v98" id="aQ"/><path fill="#fff" d="M177-190C167-65 218 103 67 71c-23-6-38-20-44-43l32-5c15 47 100 32 89-28v-30C133-14 115 1 83 1 29 1 15-40 15-95c0-56 16-97 71-98 29-1 48 16 59 35 1-10 0-23 2-32h30zM94-22c36 0 50-32 50-73 0-42-14-75-50-75-39 0-46 34-46 75s6 73 46 73" id="aR"/><path fill="#fff" d="M84 4C-5 8 30-112 23-190h32v120c0 31 7 50 39 49 72-2 45-101 50-169h31l1 190h-30c-1-10 1-25-2-33-11 22-28 36-60 37" id="aS"/><path fill="#fff" d="M100-194c62-1 85 37 85 99 1 63-27 99-86 99S16-35 15-95c0-66 28-99 85-99zM99-20c44 1 53-31 53-75 0-43-8-75-51-75s-53 32-53 75 10 74 51 75" id="aT"/><g id="i"><use transform="matrix(0.05,0,0,0.05,0,0)" xlink:href="#aQ"/><use transform="matrix(0.05,0,0,0.05,12,0)" xlink:href="#aR"/><use transform="matrix(0.05,0,0,0.05,22,0)" xlink:href="#aS"/><use transform="matrix(0.05,0,0,0.05,32,0)" xlink:href="#aB"/><use transform="matrix(0.05,0,0,0.05,42,0)" xlink:href="#aT"/><use transform="matrix(0.05,0,0,0.05,52,0)" xlink:href="#aF"/><use transform="matrix(0.05,0,0,0.05,57,0)" xlink:href="#aG"/><use transform="matrix(0.05,0,0,0.05,67,0)" xlink:href="#aH"/><use transform="matrix(0.05,0,0,0.05,72,0)" xlink:href="#aI"/><use transform="matrix(0.05,0,0,0.05,86.95,0)" xlink:href="#aJ"/></g><linearGradient gradientUnits="userSpaceOnUse" id="j" x1="980" y1="400" x2="980" y2="520"><stop offset="0%" stop-color="#1071e5"/><stop offset="50.37%" stop-color="#6db1ff"/><stop offset="100%" stop-opacity="0"/></linearGradient><path fill="#fff" d="M67-125c0 54 23 88 75 88 28 0 53-7 68-21v-34h-60v-39h108v91C232-14 192 4 140 4 58 4 20-42 15-125 8-236 126-280 215-234c19 10 29 26 37 47l-47 15c-11-23-29-39-63-39-53 1-75 33-75 86" id="aU"/><path fill="#fff" d="M137-138c1-29-70-34-71-4 15 46 118 7 119 86 1 83-164 76-172 9l43-7c4 19 20 25 44 25 33 8 57-30 24-41C81-84 22-81 20-136c-2-80 154-74 161-7" id="aV"/><path fill="#fff" d="M25 0v-190h50V0H25zm-5-208v-5l45-51h45v8l-60 48H20" id="aW"/><g id="k"><use transform="matrix(0.05,0,0,0.05,0,0)" xlink:href="#aU"/><use transform="matrix(0.05,0,0,0.05,14,0)" xlink:href="#at"/><use transform="matrix(0.05,0,0,0.05,24,0)" xlink:href="#aV"/><use transform="matrix(0.05,0,0,0.05,34,0)" xlink:href="#ax"/><use transform="matrix(0.05,0,0,0.05,39.95,0)" xlink:href="#aO"/><use transform="matrix(0.05,0,0,0.05,46.95,0)" xlink:href="#ao"/><use transform="matrix(0.05,0,0,0.05,57.900000000000006,0)" xlink:href="#ar"/><use transform="matrix(0.05,0,0,0.05,68.85000000000001,0)" xlink:href="#ao"/><use transform="matrix(0.05,0,0,0.05,79.80000000000001,0)" xlink:href="#ay"/><use transform="matrix(0.05,0,0,0.05,95.80000000000001,0)" xlink:href="#aW"/><use transform="matrix(0.05,0,0,0.05,100.80000000000001,0)" xlink:href="#at"/></g><path fill="#fff" d="M114-163C36-179 61-72 57 0H25l-1-190h30c1 12-1 29 2 39 6-27 23-49 58-41v29" id="aX"/><path fill="#fff" d="M135-143c-3-34-86-38-87 0 15 53 115 12 119 90S17 21 10-45l28-5c4 36 97 45 98 0-10-56-113-15-118-90-4-57 82-63 122-42 12 7 21 19 24 35" id="aY"/><g id="l"><use transform="matrix(0.05,0,0,0.05,0,0)" xlink:href="#aQ"/><use transform="matrix(0.05,0,0,0.05,12,0)" xlink:href="#aR"/><use transform="matrix(0.05,0,0,0.05,22,0)" xlink:href="#aH"/><use transform="matrix(0.05,0,0,0.05,27,0)" xlink:href="#aX"/><use transform="matrix(0.05,0,0,0.05,32.95,0)" xlink:href="#aD"/><use transform="matrix(0.05,0,0,0.05,42.95,0)" xlink:href="#aY"/><use transform="matrix(0.05,0,0,0.05,51.95,0)" xlink:href="#aF"/><use transform="matrix(0.05,0,0,0.05,56.95,0)" xlink:href="#aG"/><use transform="matrix(0.05,0,0,0.05,66.95,0)" xlink:href="#aH"/><use transform="matrix(0.05,0,0,0.05,71.95,0)" xlink:href="#aI"/><use transform="matrix(0.05,0,0,0.05,86.9,0)" xlink:href="#aJ"/></g><linearGradient gradientUnits="userSpaceOnUse" id="m" x1="1420" y1="399" x2="1420" y2="519"><stop offset="0%" stop-color="#1071e5"/><stop offset="50.37%" stop-color="#6db1ff"/><stop offset="100%" stop-opacity="0"/></linearGradient><path fill="#fff" d="M88-194c31-1 46 15 58 34l-1-101h50l1 261h-48c-2-10 0-23-3-31C134-8 116 4 84 4 32 4 16-41 15-95c0-56 19-97 73-99zm17 164c33 0 40-30 41-66 1-37-9-64-41-64s-38 30-39 65c0 43 13 65 39 65" id="aZ"/><path fill="#fff" d="M25-224v-37h50v37H25zM25 0v-190h50V0H25" id="ba"/><g id="n"><use transform="matrix(0.05,0,0,0.05,0,0)" xlink:href="#an"/><use transform="matrix(0.05,0,0,0.05,12.950000000000001,0)" xlink:href="#aO"/><use transform="matrix(0.05,0,0,0.05,19.950000000000003,0)" xlink:href="#aM"/><use transform="matrix(0.05,0,0,0.05,29.950000000000003,0)" xlink:href="#aZ"/><use transform="matrix(0.05,0,0,0.05,40.900000000000006,0)" xlink:href="#ba"/><use transform="matrix(0.05,0,0,0.05,45.900000000000006,0)" xlink:href="#ax"/><use transform="matrix(0.05,0,0,0.05,51.85,0)" xlink:href="#ao"/><use transform="matrix(0.05,0,0,0.05,62.80000000000001,0)" xlink:href="#aV"/></g><path fill="#fff" d="M96-169c-40 0-48 33-48 73s9 75 48 75c24 0 41-14 43-38l32 2c-6 37-31 61-74 61-59 0-76-41-82-99-10-93 101-131 147-64 4 7 5 14 7 22l-32 3c-4-21-16-35-41-35" id="bb"/><path fill="#fff" d="M141-36C126-15 110 5 73 4 37 3 15-17 15-53c-1-64 63-63 125-63 3-35-9-54-41-54-24 1-41 7-42 31l-33-3c5-37 33-52 76-52 45 0 72 20 72 64v82c-1 20 7 32 28 27v20c-31 9-61-2-59-35zM48-53c0 20 12 33 32 33 41-3 63-29 60-74-43 2-92-5-92 41" id="bc"/><g id="o"><use transform="matrix(0.05,0,0,0.05,0,0)" xlink:href="#aQ"/><use transform="matrix(0.05,0,0,0.05,12,0)" xlink:href="#aR"/><use transform="matrix(0.05,0,0,0.05,22,0)" xlink:href="#bb"/><use transform="matrix(0.05,0,0,0.05,31,0)" xlink:href="#aS"/><use transform="matrix(0.05,0,0,0.05,41,0)" xlink:href="#bc"/><use transform="matrix(0.05,0,0,0.05,51,0)" xlink:href="#aH"/><use transform="matrix(0.05,0,0,0.05,56,0)" xlink:href="#aX"/><use transform="matrix(0.05,0,0,0.05,61.95,0)" xlink:href="#aT"/><use transform="matrix(0.05,0,0,0.05,71.95,0)" xlink:href="#aF"/><use transform="matrix(0.05,0,0,0.05,76.95,0)" xlink:href="#aG"/><use transform="matrix(0.05,0,0,0.05,86.95,0)" xlink:href="#aH"/><use transform="matrix(0.05,0,0,0.05,91.95,0)" xlink:href="#aI"/><use transform="matrix(0.05,0,0,0.05,106.9,0)" xlink:href="#aJ"/></g><linearGradient gradientUnits="userSpaceOnUse" id="p" x1="320" y1="600" x2="320" y2="720"><stop offset="0%" stop-color="#1071e5"/><stop offset="50.37%" stop-color="#6db1ff"/><stop offset="100%" stop-opacity="0"/></linearGradient><path fill="#fff" d="M16-82v-28h88v28H16" id="bd"/><path fill="#fff" d="M18-27v-27l151-64-151-65v-27l175 74v36" id="be"/><g id="q"><use transform="matrix(0.05,0,0,0.05,0,0)" xlink:href="#bd"/><use transform="matrix(0.05,0,0,0.05,5.95,0)" xlink:href="#be"/></g><path fill="#fff" d="M30-248c118-7 216 8 213 122C240-48 200 0 122 0H30v-248zM63-27c89 8 146-16 146-99s-60-101-146-95v194" id="bf"/><path fill="#fff" d="M24-231v-30h32v30H24zM24 0v-190h32V0H24" id="bg"/><g id="r"><use transform="matrix(0.05,0,0,0.05,0,0)" xlink:href="#bf"/><use transform="matrix(0.05,0,0,0.05,12.950000000000001,0)" xlink:href="#bg"/><use transform="matrix(0.05,0,0,0.05,16.900000000000002,0)" xlink:href="#aB"/><use transform="matrix(0.05,0,0,0.05,26.900000000000002,0)" xlink:href="#bc"/><use transform="matrix(0.05,0,0,0.05,36.900000000000006,0)" xlink:href="#aI"/><use transform="matrix(0.05,0,0,0.05,51.85,0)" xlink:href="#bc"/><use transform="matrix(0.05,0,0,0.05,61.85,0)" xlink:href="#aX"/><use transform="matrix(0.05,0,0,0.05,67.80000000000001,0)" xlink:href="#bb"/><use transform="matrix(0.05,0,0,0.05,76.80000000000001,0)" xlink:href="#bc"/></g><g id="s"><use transform="matrix(0.05,0,0,0.05,0,0)" xlink:href="#bd"/><use transform="matrix(0.05,0,0,0.05,5.95,0)" xlink:href="#be"/></g><path fill="#fff" d="M197 0v-115H63V0H30v-248h33v105h134v-105h34V0h-34" id="bh"/><g id="t"><use transform="matrix(0.05,0,0,0.05,0,0)" xlink:href="#bh"/><use transform="matrix(0.05,0,0,0.05,12.950000000000001,0)" xlink:href="#bg"/><use transform="matrix(0.05,0,0,0.05,16.900000000000002,0)" xlink:href="#aY"/><use transform="matrix(0.05,0,0,0.05,25.900000000000002,0)" xlink:href="#aH"/><use transform="matrix(0.05,0,0,0.05,30.900000000000002,0)" xlink:href="#aT"/><use transform="matrix(0.05,0,0,0.05,40.900000000000006,0)" xlink:href="#aX"/><use transform="matrix(0.05,0,0,0.05,46.85000000000001,0)" xlink:href="#bg"/><use transform="matrix(0.05,0,0,0.05,50.80000000000001,0)" xlink:href="#bc"/></g><linearGradient gradientUnits="userSpaceOnUse" id="u" x1="760" y1="400" x2="760" y2="520"><stop offset="0%" stop-color="#1071e5"/><stop offset="50.37%" stop-color="#6db1ff"/><stop offset="100%" stop-opacity="0"/></linearGradient><g id="v"><use transform="matrix(0.05,0,0,0.05,0,0)" xlink:href="#an"/><use transform="matrix(0.05,0,0,0.05,12.950000000000001,0)" xlink:href="#ba"/><use transform="matrix(0.05,0,0,0.05,17.950000000000003,0)" xlink:href="#av"/><use transform="matrix(0.05,0,0,0.05,28.900000000000006,0)" xlink:href="#aZ"/><use transform="matrix(0.05,0,0,0.05,39.85000000000001,0)" xlink:href="#at"/><use transform="matrix(0.05,0,0,0.05,49.85000000000001,0)" xlink:href="#aZ"/></g><g id="w"><use transform="matrix(0.05,0,0,0.05,0,0)" xlink:href="#aQ"/><use transform="matrix(0.05,0,0,0.05,12,0)" xlink:href="#aR"/><use transform="matrix(0.05,0,0,0.05,22,0)" xlink:href="#aC"/><use transform="matrix(0.05,0,0,0.05,32,0)" xlink:href="#aT"/><use transform="matrix(0.05,0,0,0.05,42,0)" xlink:href="#aY"/><use transform="matrix(0.05,0,0,0.05,51,0)" xlink:href="#aF"/><use transform="matrix(0.05,0,0,0.05,56,0)" xlink:href="#aG"/><use transform="matrix(0.05,0,0,0.05,66,0)" xlink:href="#aH"/><use transform="matrix(0.05,0,0,0.05,71,0)" xlink:href="#aI"/><use transform="matrix(0.05,0,0,0.05,85.95,0)" xlink:href="#aJ"/></g><linearGradient gradientUnits="userSpaceOnUse" id="x" x1="520" y1="581.6" x2="520" y2="778.4"><stop offset="0%" stop-color="#1071e5"/><stop offset="50.37%" stop-color="#6db1ff"/><stop offset="100%" stop-opacity="0"/></linearGradient><path fill="#fff" d="M30 0v-248h33v221h125V0H30" id="bi"/><g id="y"><use transform="matrix(0.05,0,0,0.05,0,0)" xlink:href="#bi"/><use transform="matrix(0.05,0,0,0.05,10,0)" xlink:href="#bc"/></g><g id="z"><use transform="matrix(0.05,0,0,0.05,0,0)" xlink:href="#aY"/><use transform="matrix(0.05,0,0,0.05,9,0)" xlink:href="#bg"/><use transform="matrix(0.05,0,0,0.05,12.949999999999998,0)" xlink:href="#aX"/><use transform="matrix(0.05,0,0,0.05,18.9,0)" xlink:href="#aD"/><use transform="matrix(0.05,0,0,0.05,28.899999999999995,0)" xlink:href="#aB"/><use transform="matrix(0.05,0,0,0.05,38.9,0)" xlink:href="#bg"/><use transform="matrix(0.05,0,0,0.05,42.85,0)" xlink:href="#aH"/><use transform="matrix(0.05,0,0,0.05,47.85,0)" xlink:href="#bc"/></g><path fill="#fff" d="M145-31C134-9 116 4 85 4 32 4 16-35 15-94c0-59 17-99 70-100 32-1 48 14 60 33 0-11-1-24 2-32h30l-1 268h-32zM93-21c41 0 51-33 51-76s-8-73-50-73c-40 0-46 35-46 75s5 74 45 74" id="bj"/><g id="A"><use transform="matrix(0.05,0,0,0.05,0,0)" xlink:href="#aQ"/><use transform="matrix(0.05,0,0,0.05,12,0)" xlink:href="#bc"/><use transform="matrix(0.05,0,0,0.05,22,0)" xlink:href="#aX"/><use transform="matrix(0.05,0,0,0.05,27.950000000000003,0)" xlink:href="#bj"/><use transform="matrix(0.05,0,0,0.05,37.95,0)" xlink:href="#aS"/><use transform="matrix(0.05,0,0,0.05,47.95,0)" xlink:href="#aD"/></g><path fill="#fff" d="M108 0H70L1-190h34L89-25l56-165h34" id="bk"/><g id="B"><use transform="matrix(0.05,0,0,0.05,0,0)" xlink:href="#aH"/><use transform="matrix(0.05,0,0,0.05,5,0)" xlink:href="#bg"/><use transform="matrix(0.05,0,0,0.05,8.95,0)" xlink:href="#bk"/><use transform="matrix(0.05,0,0,0.05,17.95,0)" xlink:href="#aT"/><use transform="matrix(0.05,0,0,0.05,27.950000000000003,0)" xlink:href="#aJ"/><use transform="matrix(0.05,0,0,0.05,31.899999999999995,0)" xlink:href="#bg"/></g><g id="C"><use transform="matrix(0.05,0,0,0.05,0,0)" xlink:href="#aQ"/><use transform="matrix(0.05,0,0,0.05,12,0)" xlink:href="#bc"/><use transform="matrix(0.05,0,0,0.05,22,0)" xlink:href="#aJ"/><use transform="matrix(0.05,0,0,0.05,25.950000000000003,0)" xlink:href="#bc"/><use transform="matrix(0.05,0,0,0.05,35.95,0)" xlink:href="#bb"/><use transform="matrix(0.05,0,0,0.05,44.95,0)" xlink:href="#bg"/><use transform="matrix(0.05,0,0,0.05,48.900000000000006,0)" xlink:href="#aT"/></g><path fill="#fff" d="M233-177c-1 41-23 64-60 70L243 0h-38l-65-103H63V0H30v-248c88 3 205-21 203 71zM63-129c60-2 137 13 137-47 0-61-80-42-137-45v92" id="bl"/><path fill="#fff" d="M115-194c53 0 69 39 70 98 0 66-23 100-70 100C84 3 66-7 56-30L54 0H23l1-261h32v101c10-23 28-34 59-34zm-8 174c40 0 45-34 45-75 0-40-5-75-45-74-42 0-51 32-51 76 0 43 10 73 51 73" id="bm"/><g id="D"><use transform="matrix(0.05,0,0,0.05,0,0)" xlink:href="#bl"/><use transform="matrix(0.05,0,0,0.05,12.950000000000001,0)" xlink:href="#aT"/><use transform="matrix(0.05,0,0,0.05,22.950000000000003,0)" xlink:href="#aY"/><use transform="matrix(0.05,0,0,0.05,31.950000000000003,0)" xlink:href="#aD"/><use transform="matrix(0.05,0,0,0.05,41.95,0)" xlink:href="#aB"/><use transform="matrix(0.05,0,0,0.05,51.95,0)" xlink:href="#bm"/><use transform="matrix(0.05,0,0,0.05,61.95,0)" xlink:href="#aT"/><use transform="matrix(0.05,0,0,0.05,71.95,0)" xlink:href="#aX"/><use transform="matrix(0.05,0,0,0.05,77.9,0)" xlink:href="#aR"/></g><path fill="#fff" d="M212-179c-10-28-35-45-73-45-59 0-87 40-87 99 0 60 29 101 89 101 43 0 62-24 78-52l27 14C228-24 195 4 139 4 59 4 22-46 18-125c-6-104 99-153 187-111 19 9 31 26 39 46" id="bn"/><g id="E"><use transform="matrix(0.05,0,0,0.05,0,0)" xlink:href="#bn"/><use transform="matrix(0.05,0,0,0.05,12.950000000000001,0)" xlink:href="#bc"/><use transform="matrix(0.05,0,0,0.05,22.950000000000003,0)" xlink:href="#aB"/><use transform="matrix(0.05,0,0,0.05,32.95,0)" xlink:href="#bc"/><use transform="matrix(0.05,0,0,0.05,42.95,0)" xlink:href="#aJ"/></g><g id="F"><use transform="matrix(0.05,0,0,0.05,0,0)" xlink:href="#aC"/><use transform="matrix(0.05,0,0,0.05,10,0)" xlink:href="#aD"/></g><path fill="#fff" d="M190 0L58-211 59 0H30v-248h39L202-35l-2-213h31V0h-41" id="bo"/><path fill="#fff" d="M179-190L93 31C79 59 56 82 12 73V49c39 6 53-20 64-50L1-190h34L92-34l54-156h33" id="bp"/><g id="G"><use transform="matrix(0.05,0,0,0.05,0,0)" xlink:href="#bo"/><use transform="matrix(0.05,0,0,0.05,12.950000000000001,0)" xlink:href="#bp"/><use transform="matrix(0.05,0,0,0.05,21.950000000000003,0)" xlink:href="#aG"/><use transform="matrix(0.05,0,0,0.05,31.950000000000003,0)" xlink:href="#bc"/><use transform="matrix(0.05,0,0,0.05,41.95,0)" xlink:href="#bk"/><use transform="matrix(0.05,0,0,0.05,50.95,0)" xlink:href="#aB"/></g><path fill="#fff" d="M240 0l2-218c-23 76-54 145-80 218h-23L58-218 59 0H30v-248h44l77 211c21-75 51-140 76-211h43V0h-30" id="bq"/><g id="H"><use transform="matrix(0.05,0,0,0.05,0,0)" xlink:href="#bd"/><use transform="matrix(0.05,0,0,0.05,5.95,0)" xlink:href="#be"/><use transform="matrix(0.05,0,0,0.05,16.45,0)" xlink:href="#bq"/><use transform="matrix(0.05,0,0,0.05,31.399999999999995,0)" xlink:href="#aS"/><use transform="matrix(0.05,0,0,0.05,41.4,0)" xlink:href="#aY"/><use transform="matrix(0.05,0,0,0.05,50.4,0)" xlink:href="#aD"/><use transform="matrix(0.05,0,0,0.05,60.400000000000006,0)" xlink:href="#aT"/></g><g id="I"><use transform="matrix(0.05,0,0,0.05,0,0)" xlink:href="#bo"/><use transform="matrix(0.05,0,0,0.05,12.950000000000001,0)" xlink:href="#bc"/><use transform="matrix(0.05,0,0,0.05,22.950000000000003,0)" xlink:href="#bb"/><use transform="matrix(0.05,0,0,0.05,31.950000000000003,0)" xlink:href="#bg"/><use transform="matrix(0.05,0,0,0.05,35.900000000000006,0)" xlink:href="#aT"/><use transform="matrix(0.05,0,0,0.05,45.900000000000006,0)" xlink:href="#aB"/><use transform="matrix(0.05,0,0,0.05,55.900000000000006,0)" xlink:href="#bc"/><use transform="matrix(0.05,0,0,0.05,65.9,0)" xlink:href="#aJ"/></g><g id="J"><use transform="matrix(0.05,0,0,0.05,0,0)" xlink:href="#bq"/><use transform="matrix(0.05,0,0,0.05,14.950000000000001,0)" xlink:href="#aS"/><use transform="matrix(0.05,0,0,0.05,24.950000000000003,0)" xlink:href="#aY"/><use transform="matrix(0.05,0,0,0.05,33.95,0)" xlink:href="#aD"/><use transform="matrix(0.05,0,0,0.05,43.95,0)" xlink:href="#aT"/></g><path fill="#fff" d="M205 0l-28-72H64L36 0H1l101-248h38L239 0h-34zm-38-99l-47-123c-12 45-31 82-46 123h93" id="br"/><g id="K"><use transform="matrix(0.05,0,0,0.05,0,0)" xlink:href="#br"/><use transform="matrix(0.05,0,0,0.05,12,0)" xlink:href="#aX"/><use transform="matrix(0.05,0,0,0.05,17.95,0)" xlink:href="#aH"/><use transform="matrix(0.05,0,0,0.05,22.95,0)" xlink:href="#aD"/></g><linearGradient gradientUnits="userSpaceOnUse" id="L" x1="760" y1="583.2" x2="760" y2="736.8"><stop offset="0%" stop-color="#1071e5"/><stop offset="50.37%" stop-color="#6db1ff"/><stop offset="100%" stop-opacity="0"/></linearGradient><path fill="#fff" d="M127-220V0H93v-220H8v-28h204v28h-85" id="bs"/><g id="M"><use transform="matrix(0.05,0,0,0.05,0,0)" xlink:href="#bs"/><use transform="matrix(0.05,0,0,0.05,10.950000000000001,0)" xlink:href="#aG"/><use transform="matrix(0.05,0,0,0.05,20.950000000000003,0)" xlink:href="#aD"/></g><path fill="#fff" d="M160-131c35 5 61 23 61 61C221 17 115-2 30 0v-248c76 3 177-17 177 60 0 33-19 50-47 57zm-97-11c50-1 110 9 110-42 0-47-63-36-110-37v79zm0 115c55-2 124 14 124-45 0-56-70-42-124-44v89" id="bt"/><g id="N"><use transform="matrix(0.05,0,0,0.05,0,0)" xlink:href="#bt"/><use transform="matrix(0.05,0,0,0.05,12,0)" xlink:href="#aX"/><use transform="matrix(0.05,0,0,0.05,17.95,0)" xlink:href="#aT"/><use transform="matrix(0.05,0,0,0.05,27.950000000000003,0)" xlink:href="#aY"/></g><path fill="#fff" d="M137 0h-34L2-248h35l83 218 83-218h36" id="bu"/><g id="O"><use transform="matrix(0.05,0,0,0.05,0,0)" xlink:href="#bu"/><use transform="matrix(0.05,0,0,0.05,10.65,0)" xlink:href="#bc"/><use transform="matrix(0.05,0,0,0.05,20.65,0)" xlink:href="#aJ"/><use transform="matrix(0.05,0,0,0.05,24.599999999999998,0)" xlink:href="#bg"/><use transform="matrix(0.05,0,0,0.05,28.549999999999997,0)" xlink:href="#aD"/><use transform="matrix(0.05,0,0,0.05,38.55,0)" xlink:href="#aB"/><use transform="matrix(0.05,0,0,0.05,48.55,0)" xlink:href="#aH"/><use transform="matrix(0.05,0,0,0.05,53.54999999999999,0)" xlink:href="#aD"/></g><use transform="matrix(0.05,0,0,0.05,0,0)" xlink:href="#bp" id="P"/><path fill="#fff" d="M115-194c55 1 70 41 70 98S169 2 115 4C84 4 66-9 55-30l1 105H24l-1-265h31l2 30c10-21 28-34 59-34zm-8 174c40 0 45-34 45-75s-6-73-45-74c-42 0-51 32-51 76 0 43 10 73 51 73" id="bv"/><path fill="#fff" d="M100-194c62-1 85 37 85 99 1 63-27 99-86 99S16-35 15-95c0-66 28-99 85-99zM99-20c44 1 53-31 53-75 0-43-8-75-51-75s-53 32-53 75 10 74 51 75zM76-211c8-23 27-35 38-54h36v5l-58 49H76" id="bw"/><g id="Q"><use transform="matrix(0.05,0,0,0.05,0,0)" xlink:href="#bv"/><use transform="matrix(0.05,0,0,0.05,10,0)" xlink:href="#aX"/><use transform="matrix(0.05,0,0,0.05,15.949999999999998,0)" xlink:href="#bw"/><use transform="matrix(0.05,0,0,0.05,25.950000000000003,0)" xlink:href="#aE"/><use transform="matrix(0.05,0,0,0.05,34.95,0)" xlink:href="#bg"/><use transform="matrix(0.05,0,0,0.05,38.900000000000006,0)" xlink:href="#aI"/><use transform="matrix(0.05,0,0,0.05,53.85,0)" xlink:href="#bc"/></g><g id="R"><use transform="matrix(0.05,0,0,0.05,0,0)" xlink:href="#bu"/><use transform="matrix(0.05,0,0,0.05,11.65,0)" xlink:href="#bg"/><use transform="matrix(0.05,0,0,0.05,15.600000000000001,0)" xlink:href="#aC"/><use transform="matrix(0.05,0,0,0.05,25.6,0)" xlink:href="#bc"/></g><path fill="#fff" d="M63-220v92h138v28H63V0H30v-248h175v28H63" id="bx"/><g id="S"><use transform="matrix(0.05,0,0,0.05,0,0)" xlink:href="#bx"/><use transform="matrix(0.05,0,0,0.05,10.950000000000001,0)" xlink:href="#aX"/><use transform="matrix(0.05,0,0,0.05,16.900000000000002,0)" xlink:href="#aD"/><use transform="matrix(0.05,0,0,0.05,26.900000000000002,0)" xlink:href="#aB"/><use transform="matrix(0.05,0,0,0.05,36.900000000000006,0)" xlink:href="#aH"/><use transform="matrix(0.05,0,0,0.05,41.900000000000006,0)" xlink:href="#aD"/></g><g id="T"><use transform="matrix(0.05,0,0,0.05,0,0)" xlink:href="#br"/><use transform="matrix(0.05,0,0,0.05,12,0)" xlink:href="#aJ"/></g><g id="U"><use transform="matrix(0.05,0,0,0.05,0,0)" xlink:href="#aI"/><use transform="matrix(0.05,0,0,0.05,14.950000000000001,0)" xlink:href="#bc"/><use transform="matrix(0.05,0,0,0.05,24.950000000000003,0)" xlink:href="#aX"/></g><g id="V"><use transform="matrix(0.05,0,0,0.05,0,0)" xlink:href="#bi"/><use transform="matrix(0.05,0,0,0.05,10,0)" xlink:href="#aT"/><use transform="matrix(0.05,0,0,0.05,20,0)" xlink:href="#aY"/></g><path fill="#fff" d="M141-36C126-15 110 5 73 4 37 3 15-17 15-53c-1-64 63-63 125-63 3-35-9-54-41-54-24 1-41 7-42 31l-33-3c5-37 33-52 76-52 45 0 72 20 72 64v82c-1 20 7 32 28 27v20c-31 9-61-2-59-35zM48-53c0 20 12 33 32 33 41-3 63-29 60-74-43 2-92-5-92 41zm25-158c8-23 27-35 38-54h36v5l-58 49H73" id="by"/><g id="W"><use transform="matrix(0.05,0,0,0.05,0,0)" xlink:href="#bn"/><use transform="matrix(0.05,0,0,0.05,12.950000000000001,0)" xlink:href="#aJ"/><use transform="matrix(0.05,0,0,0.05,16.900000000000002,0)" xlink:href="#by"/><use transform="matrix(0.05,0,0,0.05,26.900000000000002,0)" xlink:href="#aY"/><use transform="matrix(0.05,0,0,0.05,35.900000000000006,0)" xlink:href="#bg"/><use transform="matrix(0.05,0,0,0.05,39.85000000000001,0)" xlink:href="#bb"/><use transform="matrix(0.05,0,0,0.05,48.85000000000001,0)" xlink:href="#aT"/><use transform="matrix(0.05,0,0,0.05,58.85,0)" xlink:href="#aY"/></g><linearGradient gradientUnits="userSpaceOnUse" id="X" x1="980" y1="600" x2="980" y2="720"><stop offset="0%" stop-color="#1071e5"/><stop offset="50.37%" stop-color="#6db1ff"/><stop offset="100%" stop-opacity="0"/></linearGradient><path fill="#fff" d="M143 4C61 4 22-44 18-125c-5-107 100-154 193-111 17 8 29 25 37 43l-32 9c-13-25-37-40-76-40-61 0-88 39-88 99 0 61 29 100 91 101 35 0 62-11 79-27v-45h-74v-28h105v86C228-13 192 4 143 4" id="bz"/><path fill="#fff" d="M34 0v-190h32V0H34zM24-211c8-23 27-35 38-54h36v5l-58 49H24" id="bA"/><g id="Y"><use transform="matrix(0.05,0,0,0.05,0,0)" xlink:href="#bz"/><use transform="matrix(0.05,0,0,0.05,14,0)" xlink:href="#bc"/><use transform="matrix(0.05,0,0,0.05,24,0)" xlink:href="#aY"/><use transform="matrix(0.05,0,0,0.05,33,0)" xlink:href="#aH"/><use transform="matrix(0.05,0,0,0.05,38,0)" xlink:href="#aX"/><use transform="matrix(0.05,0,0,0.05,43.95,0)" xlink:href="#aT"/><use transform="matrix(0.05,0,0,0.05,53.95,0)" xlink:href="#aB"/><use transform="matrix(0.05,0,0,0.05,63.95,0)" xlink:href="#aT"/><use transform="matrix(0.05,0,0,0.05,73.95,0)" xlink:href="#aI"/><use transform="matrix(0.05,0,0,0.05,88.9,0)" xlink:href="#bA"/><use transform="matrix(0.05,0,0,0.05,93.9,0)" xlink:href="#bc"/></g><path fill="#fff" d="M30 0v-248h187v28H63v79h144v27H63v87h162V0H30" id="bB"/><g id="Z"><use transform="matrix(0.05,0,0,0.05,0,0)" xlink:href="#bB"/><use transform="matrix(0.05,0,0,0.05,12,0)" xlink:href="#aB"/><use transform="matrix(0.05,0,0,0.05,22,0)" xlink:href="#aJ"/><use transform="matrix(0.05,0,0,0.05,25.950000000000003,0)" xlink:href="#bc"/><use transform="matrix(0.05,0,0,0.05,35.95,0)" xlink:href="#bb"/><use transform="matrix(0.05,0,0,0.05,44.95,0)" xlink:href="#aD"/></g><path fill="#fff" d="M266 0h-40l-56-210L115 0H75L2-248h35L96-30l15-64 43-154h32l59 218 59-218h35" id="bC"/><g id="aa"><use transform="matrix(0.05,0,0,0.05,0,0)" xlink:href="#bC"/><use transform="matrix(0.05,0,0,0.05,16.599999999999998,0)" xlink:href="#aD"/><use transform="matrix(0.05,0,0,0.05,26.599999999999994,0)" xlink:href="#bm"/></g><linearGradient gradientUnits="userSpaceOnUse" id="ab" x1="1420" y1="599" x2="1420" y2="719"><stop offset="0%" stop-color="#1071e5"/><stop offset="50.37%" stop-color="#6db1ff"/><stop offset="100%" stop-opacity="0"/></linearGradient><g id="ac"><use transform="matrix(0.05,0,0,0.05,0,0)" xlink:href="#bs"/><use transform="matrix(0.05,0,0,0.05,8.950000000000001,0)" xlink:href="#bc"/><use transform="matrix(0.05,0,0,0.05,18.950000000000003,0)" xlink:href="#bm"/><use transform="matrix(0.05,0,0,0.05,28.950000000000003,0)" xlink:href="#aJ"/><use transform="matrix(0.05,0,0,0.05,32.900000000000006,0)" xlink:href="#bc"/></g><g id="ad"><use transform="matrix(0.05,0,0,0.05,0,0)" xlink:href="#aC"/><use transform="matrix(0.05,0,0,0.05,10,0)" xlink:href="#aD"/></g><path fill="#fff" d="M100-194c63 0 86 42 84 106H49c0 40 14 67 53 68 26 1 43-12 49-29l28 8c-11 28-37 45-77 45C44 4 14-33 15-96c1-61 26-98 85-98zm52 81c6-60-76-77-97-28-3 7-6 17-6 28h103zm-74-98c8-23 27-35 38-54h36v5l-58 49H78" id="bD"/><g id="ae"><use transform="matrix(0.05,0,0,0.05,0,0)" xlink:href="#bn"/><use transform="matrix(0.05,0,0,0.05,12.950000000000001,0)" xlink:href="#aX"/><use transform="matrix(0.05,0,0,0.05,18.900000000000002,0)" xlink:href="#bD"/><use transform="matrix(0.05,0,0,0.05,28.900000000000002,0)" xlink:href="#aC"/><use transform="matrix(0.05,0,0,0.05,38.900000000000006,0)" xlink:href="#bg"/><use transform="matrix(0.05,0,0,0.05,42.85000000000001,0)" xlink:href="#aH"/><use transform="matrix(0.05,0,0,0.05,47.85000000000001,0)" xlink:href="#aT"/><use transform="matrix(0.05,0,0,0.05,57.85,0)" xlink:href="#aY"/></g><g id="af"><use transform="matrix(0.05,0,0,0.05,0,0)" xlink:href="#bq"/><use transform="matrix(0.05,0,0,0.05,14.950000000000001,0)" xlink:href="#bc"/><use transform="matrix(0.05,0,0,0.05,24.950000000000003,0)" xlink:href="#bv"/><use transform="matrix(0.05,0,0,0.05,34.95,0)" xlink:href="#bc"/></g><g id="ag"><use transform="matrix(0.05,0,0,0.05,0,0)" xlink:href="#bo"/><use transform="matrix(0.05,0,0,0.05,12.950000000000001,0)" xlink:href="#bc"/><use transform="matrix(0.05,0,0,0.05,22.950000000000003,0)" xlink:href="#bk"/><use transform="matrix(0.05,0,0,0.05,31.950000000000003,0)" xlink:href="#aD"/><use transform="matrix(0.05,0,0,0.05,41.95,0)" xlink:href="#aR"/><use transform="matrix(0.05,0,0,0.05,51.95,0)" xlink:href="#bc"/><use transform="matrix(0.05,0,0,0.05,61.95,0)" xlink:href="#bb"/><use transform="matrix(0.05,0,0,0.05,70.95,0)" xlink:href="#bg"/><use transform="matrix(0.05,0,0,0.05,74.9,0)" xlink:href="#bw"/><use transform="matrix(0.05,0,0,0.05,84.9,0)" xlink:href="#aB"/></g><linearGradient gradientUnits="userSpaceOnUse" id="ah" x1="1200" y1="400" x2="1200" y2="520"><stop offset="0%" stop-color="#1071e5"/><stop offset="50.37%" stop-color="#6db1ff"/><stop offset="100%" stop-opacity="0"/></linearGradient><path fill="#fff" d="M240-174c0 40-23 61-54 70L253 0h-59l-57-94H76V0H24v-248c93 4 217-23 216 74zM76-134c48-2 112 12 112-38 0-48-66-32-112-35v73" id="bE"/><g id="ai"><use transform="matrix(0.05,0,0,0.05,0,0)" xlink:href="#bE"/><use transform="matrix(0.05,0,0,0.05,12.950000000000001,0)" xlink:href="#aq"/><use transform="matrix(0.05,0,0,0.05,22.950000000000003,0)" xlink:href="#aV"/><use transform="matrix(0.05,0,0,0.05,32.95,0)" xlink:href="#ax"/><use transform="matrix(0.05,0,0,0.05,38.900000000000006,0)" xlink:href="#at"/><use transform="matrix(0.05,0,0,0.05,48.900000000000006,0)" xlink:href="#av"/><use transform="matrix(0.05,0,0,0.05,59.85,0)" xlink:href="#aO"/><use transform="matrix(0.05,0,0,0.05,66.85000000000001,0)" xlink:href="#at"/><use transform="matrix(0.05,0,0,0.05,76.85000000000001,0)" xlink:href="#ar"/><use transform="matrix(0.05,0,0,0.05,87.80000000000001,0)" xlink:href="#ax"/><use transform="matrix(0.05,0,0,0.05,93.75000000000001,0)" xlink:href="#aq"/><use transform="matrix(0.05,0,0,0.05,103.75,0)" xlink:href="#aV"/></g><path fill="#fff" d="M27 0v-27h64v-190l-56 39v-29l58-41h29v221h61V0H27" id="bF"/><g id="aj"><use transform="matrix(0.05,0,0,0.05,0,0)" xlink:href="#aQ"/><use transform="matrix(0.05,0,0,0.05,12,0)" xlink:href="#aR"/><use transform="matrix(0.05,0,0,0.05,22,0)" xlink:href="#aH"/><use transform="matrix(0.05,0,0,0.05,27,0)" xlink:href="#aX"/><use transform="matrix(0.05,0,0,0.05,32.95,0)" xlink:href="#aD"/><use transform="matrix(0.05,0,0,0.05,42.95,0)" xlink:href="#aY"/><use transform="matrix(0.05,0,0,0.05,51.95,0)" xlink:href="#bF"/><use transform="matrix(0.05,0,0,0.05,61.95,0)" xlink:href="#aF"/><use transform="matrix(0.05,0,0,0.05,66.95,0)" xlink:href="#aG"/><use transform="matrix(0.05,0,0,0.05,76.95,0)" xlink:href="#aH"/><use transform="matrix(0.05,0,0,0.05,81.95,0)" xlink:href="#aI"/><use transform="matrix(0.05,0,0,0.05,96.9,0)" xlink:href="#aJ"/></g><linearGradient gradientUnits="userSpaceOnUse" id="ak" x1="1200" y1="600" x2="1200" y2="720"><stop offset="0%" stop-color="#1071e5"/><stop offset="50.37%" stop-color="#6db1ff"/><stop offset="100%" stop-opacity="0"/></linearGradient><g id="al"><use transform="matrix(0.05,0,0,0.05,0,0)" xlink:href="#bq"/><use transform="matrix(0.05,0,0,0.05,14.950000000000001,0)" xlink:href="#bc"/><use transform="matrix(0.05,0,0,0.05,24.950000000000003,0)" xlink:href="#bv"/><use transform="matrix(0.05,0,0,0.05,34.95,0)" xlink:href="#bc"/></g><g id="am"><use transform="matrix(0.05,0,0,0.05,0,0)" xlink:href="#aA"/><use transform="matrix(0.05,0,0,0.05,5,0)" xlink:href="#aB"/><use transform="matrix(0.05,0,0,0.05,15,0)" xlink:href="#aH"/><use transform="matrix(0.05,0,0,0.05,20,0)" xlink:href="#aD"/><use transform="matrix(0.05,0,0,0.05,30,0)" xlink:href="#aX"/><use transform="matrix(0.05,0,0,0.05,35.95,0)" xlink:href="#bc"/><use transform="matrix(0.05,0,0,0.05,45.95,0)" xlink:href="#bb"/><use transform="matrix(0.05,0,0,0.05,54.95,0)" xlink:href="#aH"/><use transform="matrix(0.05,0,0,0.05,59.95,0)" xlink:href="#bg"/><use transform="matrix(0.05,0,0,0.05,63.900000000000006,0)" xlink:href="#bk"/><use transform="matrix(0.05,0,0,0.05,72.9,0)" xlink:href="#aT"/></g></defs></g></svg>